<svg width="20" height="20" viewBox="0 0 20 20" fill="none" xmlns="http://www.w3.org/2000/svg">
<path d="M3.33337 9.77137C3.33337 9.45496 3.5685 9.19346 3.87357 9.15208L3.95837 9.14637L14.945 9.14687L10.9759 5.19393C10.7313 4.95038 10.7304 4.55465 10.974 4.31005C11.1954 4.08768 11.5426 4.06676 11.7876 4.24778L11.8579 4.30815L16.8995 9.32815C16.9318 9.36025 16.9598 9.39499 16.9835 9.43169C16.9903 9.44273 16.9971 9.45403 17.0036 9.46555C17.0095 9.47543 17.0149 9.48569 17.02 9.49607C17.027 9.51116 17.0339 9.52675 17.0402 9.54266C17.0453 9.55492 17.0495 9.56685 17.0534 9.57888C17.058 9.59379 17.0625 9.60968 17.0663 9.62581C17.0692 9.63708 17.0715 9.64792 17.0734 9.6588C17.0762 9.67499 17.0786 9.69175 17.0803 9.7087C17.0817 9.72164 17.0826 9.73445 17.0831 9.74727C17.0832 9.75505 17.0834 9.76319 17.0834 9.77137L17.0831 9.79558C17.0826 9.80785 17.0817 9.8201 17.0805 9.83233L17.0834 9.77137C17.0834 9.81081 17.0797 9.8494 17.0727 9.88681C17.0711 9.89575 17.0692 9.90492 17.067 9.91406C17.0626 9.93287 17.0575 9.95099 17.0516 9.96875C17.0487 9.97758 17.0453 9.98701 17.0417 9.99637C17.0344 10.0152 17.0264 10.0331 17.0177 10.0506C17.0136 10.0588 17.0091 10.0674 17.0043 10.0759C16.9965 10.0898 16.9885 10.103 16.98 10.1158C16.974 10.1249 16.9673 10.1344 16.9604 10.1437L16.955 10.1509C16.9381 10.1729 16.9199 10.1938 16.9003 10.2133L16.8996 10.2139L11.8579 15.2347C11.6133 15.4783 11.2176 15.4775 10.974 15.2329C10.7526 15.0105 10.7331 14.6633 10.9152 14.419L10.9758 14.349L14.9434 10.3969L3.95837 10.3964C3.6132 10.3964 3.33337 10.1165 3.33337 9.77137Z" fill="white"/>
</svg>
