<svg width="20" height="20" viewBox="0 0 20 20" fill="none" xmlns="http://www.w3.org/2000/svg">
<path d="M16.6666 9.77137C16.6666 9.45496 16.4315 9.19346 16.1264 9.15208L16.0416 9.14637L5.05496 9.14687L9.02412 5.19393C9.26872 4.95038 9.26957 4.55465 9.02602 4.31005C8.80461 4.08768 8.45743 4.06676 8.21237 4.24778L8.14214 4.30815L3.10047 9.32815C3.06823 9.36025 3.04023 9.39499 3.01646 9.43169C3.00974 9.44273 3.00291 9.45403 2.99643 9.46555C2.99047 9.47543 2.98509 9.48569 2.98001 9.49607C2.97295 9.51116 2.96606 9.52675 2.9598 9.54266C2.95471 9.55492 2.95047 9.56685 2.94659 9.57888C2.94199 9.59379 2.93752 9.60968 2.93367 9.62581C2.93081 9.63708 2.92854 9.64792 2.92656 9.6588C2.92378 9.67499 2.92142 9.69175 2.91973 9.7087C2.91827 9.72164 2.9174 9.73445 2.91691 9.74727C2.91679 9.75505 2.91663 9.76319 2.91663 9.77137L2.91694 9.79558C2.91742 9.80785 2.91826 9.8201 2.91946 9.83233L2.91663 9.77137C2.91663 9.81081 2.92028 9.8494 2.92727 9.88681C2.92889 9.89575 2.93082 9.90492 2.93296 9.91406C2.9374 9.93287 2.94253 9.95099 2.94843 9.96875C2.95133 9.97758 2.95471 9.98701 2.95832 9.99637C2.96563 10.0152 2.97357 10.0331 2.9823 10.0506C2.98636 10.0588 2.9909 10.0674 2.99566 10.0759C3.00347 10.0898 3.01151 10.103 3.02002 10.1158C3.02602 10.1249 3.03267 10.1344 3.03961 10.1437L3.04502 10.1509C3.06186 10.1729 3.08013 10.1938 3.09969 10.2133L3.10044 10.2139L8.1421 15.2347C8.38668 15.4783 8.78241 15.4775 9.02598 15.2329C9.24741 15.0105 9.26686 14.6633 9.08481 14.419L9.02415 14.349L5.05663 10.3969L16.0416 10.3964C16.3868 10.3964 16.6666 10.1165 16.6666 9.77137Z" fill="white"/>
</svg>
