<svg width="23" height="23" viewBox="0 0 23 23" fill="none" xmlns="http://www.w3.org/2000/svg">
<path d="M19.2827 6.5147C18.4682 5.10324 17.2961 3.93143 15.8844 3.11737C14.4536 2.2839 12.8921 1.8667 11.2 1.8667C9.50787 1.8667 7.9464 2.2839 6.51467 3.11737C5.08387 3.95083 3.9508 5.0839 3.11734 6.5147C2.28387 7.9455 1.86667 9.5079 1.86667 11.2C1.86667 12.8922 2.28294 14.4546 3.11734 15.8854C3.9315 17.297 5.10371 18.4689 6.5156 19.2827C7.9464 20.1162 9.50787 20.5334 11.2 20.5334C12.8921 20.5334 14.4536 20.1162 15.8853 19.2827C17.297 18.4686 18.4692 17.2968 19.2836 15.8854C20.1171 14.4546 20.5333 12.8922 20.5333 11.2C20.5333 9.5079 20.1171 7.9455 19.2827 6.5147ZM11.2 3.41603C13.0667 3.41603 14.7205 4.01337 16.1653 5.2071C15.3067 6.30283 14.0317 7.20443 12.3387 7.91377C11.4035 6.22163 10.3899 4.80857 9.29507 3.67643C9.91555 3.50487 10.5562 3.41729 11.2 3.41603ZM5.14267 6.3467C5.82516 5.48003 6.6887 4.77289 7.67293 4.2747C8.80413 5.39563 9.84293 6.7947 10.7903 8.4747C8.9236 9.0347 6.95053 9.3147 4.872 9.3147C4.3372 9.3147 3.93307 9.30257 3.65867 9.27737C3.94471 8.20812 4.45009 7.21009 5.14267 6.3467ZM3.416 11.2C3.416 11.1496 3.4188 11.088 3.42534 11.0134C3.43187 10.9387 3.43467 10.8771 3.43467 10.8267C3.67174 10.8398 4.03294 10.8454 4.51827 10.8454C7.00654 10.8454 9.3212 10.5028 11.4613 9.8187C11.6359 10.1668 11.8169 10.5588 12.0027 10.9947C10.7707 11.2682 9.50693 11.9336 8.2124 12.992C6.91787 14.0504 5.97334 15.1639 5.376 16.3334C4.06934 14.8522 3.416 13.1414 3.416 11.2ZM11.2 18.984C9.43227 18.984 7.8456 18.4362 6.43907 17.3423C7 16.2344 7.86147 15.1751 9.02533 14.168C10.1883 13.16 11.3428 12.5319 12.488 12.2827C13.2104 14.2791 13.699 16.3525 13.944 18.4614C13.0693 18.8031 12.1391 18.9803 11.2 18.984ZM17.808 15.288C17.1971 16.2723 16.3745 17.108 15.4 17.7343C15.176 15.793 14.7467 13.9011 14.1129 12.0587C14.9828 11.9971 15.7603 11.9654 16.4463 11.9654C17.192 11.9654 18.0199 11.9971 18.928 12.0587C18.8062 13.2065 18.423 14.3112 17.808 15.288ZM16.6507 10.6214C15.568 10.6214 14.5665 10.6652 13.6453 10.752C13.4502 10.2413 13.2385 9.73703 13.0107 9.24003C14.9389 8.39443 16.3072 7.36777 17.1164 6.16003C18.2364 7.47977 18.8468 8.98523 18.9457 10.6774C18.1879 10.64 17.4225 10.6214 16.6507 10.6214Z" fill="white"/>
</svg>
