<svg width="145" height="28" viewBox="0 0 145 28" fill="none" xmlns="http://www.w3.org/2000/svg">
<path d="M11.9754 22.7425C12.5461 22.7425 13.0879 22.6895 13.5977 22.5708C14.1145 22.4522 14.5734 22.2659 14.9605 21.9891C15.3476 21.7237 15.6679 21.3594 15.9014 20.8953C16.1348 20.4363 16.2466 19.84 16.2466 19.1187C16.2466 17.7065 15.8655 16.7032 15.1082 16.0944C14.3489 15.4939 13.3363 15.1952 12.0911 15.1952H5.80164V22.7425H11.9754ZM11.6561 11.076C12.6808 11.076 13.5288 10.8221 14.2013 10.3069C14.8668 9.80112 15.19 8.96334 15.19 7.81437C15.19 7.17745 15.0823 6.6498 14.8668 6.2408C14.6443 5.83179 14.3489 5.51125 13.9758 5.28749C13.6057 5.05437 13.1876 4.89306 12.7017 4.80668C12.2258 4.70885 11.726 4.67138 11.2142 4.67138H5.80164V11.076H11.6561ZM12.4044 0.00268555C13.6605 0.00268555 14.7949 0.116125 15.8315 0.350288C16.8622 0.578207 17.7421 0.959113 18.4854 1.48156C19.2177 2.00296 19.7904 2.69712 20.2005 3.57133C20.6005 4.43306 20.8021 5.51125 20.8021 6.78718C20.8021 8.16718 20.5018 9.31926 19.9012 10.2403C19.2965 11.1603 18.4076 11.9148 17.2203 12.5008C18.8376 12.9857 20.0348 13.8402 20.829 15.0537C21.6272 16.2755 22.0173 17.7387 22.0173 19.4528C22.0173 20.8432 21.7619 22.039 21.253 23.0454C20.7382 24.0643 20.0378 24.8906 19.1748 25.5275C18.3048 26.1707 17.3051 26.6421 16.1857 26.9492C15.0783 27.2562 13.9289 27.4102 12.7516 27.4102H0.0169678V0.00268555H12.4044Z" fill="#A7AAB4"/>
<path d="M36.2684 12.2249C35.6469 11.5079 34.5953 11.1197 33.3122 11.1197C32.4772 11.1197 31.7858 11.2664 31.233 11.5651C30.6923 11.8596 30.2483 12.227 29.9101 12.6589C29.5728 13.0981 29.3424 13.5612 29.2087 14.0566C29.075 14.5395 28.9952 14.9776 28.9702 15.3648H37.4727C37.3479 13.9744 36.892 12.9472 36.2684 12.2249ZM30.2643 22.6509C31.0465 23.4481 32.1778 23.8498 33.6435 23.8498C34.697 23.8498 35.6079 23.572 36.3722 23.0172C37.1294 22.4646 37.5904 21.8724 37.769 21.2584H42.3704C41.6311 23.6469 40.5087 25.3526 38.9772 26.3788C37.4647 27.4102 35.6189 27.9243 33.4689 27.9243C31.9703 27.9243 30.6214 27.6703 29.4112 27.1729C28.201 26.6681 27.1893 25.9604 26.3383 25.0383C25.5092 24.1121 24.8657 23.0172 24.4068 21.732C23.9528 20.4529 23.7233 19.0365 23.7233 17.5014C23.7233 16.0173 23.9618 14.6311 24.4257 13.3499C24.9006 12.0646 25.5561 10.9552 26.4181 10.0248C27.2831 9.08921 28.3078 8.35134 29.501 7.81224C30.6953 7.27419 32.0112 7.00464 33.4689 7.00464C35.0782 7.00464 36.4879 7.32726 37.6961 7.98604C38.9004 8.63442 39.8871 9.51383 40.6633 10.6149C41.4385 11.715 41.9902 12.9722 42.3354 14.3813C42.6767 15.7894 42.7974 17.26 42.6986 18.8002H28.9702C28.9702 20.3686 29.4791 21.8537 30.2643 22.6509Z" fill="#A7AAB4"/>
<path d="M50.1206 0.00268555V10.3371H50.2403C50.9037 9.18709 51.7428 8.35139 52.7744 7.83311C53.8041 7.31066 54.8087 7.05256 55.7875 7.05256C57.1833 7.05256 58.3266 7.24406 59.2196 7.63849C60.1135 8.04021 60.8209 8.58347 61.3387 9.29012C61.8465 9.99365 62.2057 10.8523 62.4162 11.8638C62.6227 12.8733 62.7295 13.9869 62.7295 15.215V27.4102H57.4786V16.2047C57.4786 14.5708 57.2342 13.3427 56.7473 12.5393C56.2594 11.7348 55.3934 11.331 54.1443 11.331C52.7315 11.331 51.7099 11.7775 51.0773 12.659C50.4328 13.5404 50.1206 14.9912 50.1206 17.0102V27.4102H44.8716V0.00268555H50.1206Z" fill="#A7AAB4"/>
<path d="M76.7452 18.1914C76.42 18.3038 76.0598 18.3985 75.6886 18.4807C75.3055 18.5567 74.9054 18.6181 74.4904 18.6722C74.0793 18.7243 73.6563 18.7836 73.2463 18.8606C72.8552 18.9407 72.4641 19.0406 72.0919 19.1707C71.7128 19.2998 71.3806 19.4715 71.1072 19.688C70.8238 19.9076 70.5984 20.1823 70.4258 20.5122C70.2582 20.8432 70.1684 21.273 70.1684 21.7809C70.1684 22.2658 70.2582 22.6749 70.4258 23.011C70.5984 23.344 70.8239 23.6042 71.1202 23.7968C71.4155 23.9893 71.7617 24.1246 72.1468 24.1995C72.5379 24.2807 72.942 24.3109 73.356 24.3109C74.3836 24.3109 75.1758 24.1329 75.7405 23.7759C76.3022 23.4169 76.7253 22.9881 76.9896 22.4886C77.259 21.989 77.4216 21.4853 77.4745 20.9774C77.5434 20.4664 77.5743 20.0543 77.5743 19.7452V17.7064C77.3478 17.9156 77.0814 18.0769 76.7452 18.1914ZM66.4599 10.4692C66.9917 9.62519 67.6771 8.94143 68.5112 8.43043C69.3453 7.91423 70.2771 7.55102 71.3247 7.33351C72.3683 7.10975 73.4119 7.00464 74.4714 7.00464C75.4243 7.00464 76.388 7.07333 77.3807 7.21487C78.3575 7.35536 79.2504 7.63116 80.0606 8.04224C80.8697 8.45541 81.5292 9.02053 82.04 9.7584C82.5578 10.4775 82.8202 11.4517 82.8202 12.6589V23.0016C82.8202 23.9008 82.8721 24.7553 82.9639 25.5733C83.0676 26.3986 83.336 27.0178 83.5894 27.4237L78.2517 27.4102C78.0951 27.1729 77.9654 26.8013 77.9045 26.4777C77.8427 26.1613 77.7998 25.8355 77.7758 25.5015C76.9447 26.3986 75.97 27.0292 74.8346 27.3893C73.7082 27.7442 72.5599 27.9243 71.3806 27.9243C70.4767 27.9243 69.6346 27.8046 68.8464 27.5735C68.0702 27.3425 67.3808 26.9845 66.7931 26.5006C66.2025 26.0073 65.7485 25.3953 65.4173 24.6543C65.0881 23.9092 64.9185 23.0225 64.9185 21.9984C64.9185 20.8681 65.113 19.9377 65.4971 19.2092C65.8713 18.4807 66.3571 17.8948 66.9647 17.4608C67.5624 17.0237 68.2488 16.6948 69.026 16.4804C69.7962 16.264 70.5784 16.085 71.3536 15.959C72.1408 15.8331 72.907 15.7311 73.6723 15.652C74.4395 15.574 75.104 15.4626 75.6976 15.3065C76.2833 15.1546 76.7522 14.9235 77.0964 14.6311C77.4346 14.3376 77.5972 13.9109 77.5743 13.3427C77.5743 12.7557 77.4745 12.2874 77.2939 11.9377C77.1124 11.5932 76.8669 11.3278 76.5666 11.1342C76.2583 10.9407 75.9111 10.8137 75.511 10.746C75.104 10.6846 74.673 10.6503 74.213 10.6503C73.1904 10.6503 72.3813 10.8876 71.8076 11.3434C71.2179 11.8128 70.8787 12.585 70.774 13.6632H65.532C65.6079 12.3758 65.9112 11.3132 66.4599 10.4692Z" fill="#A7AAB4"/>
<path d="M90.6571 7.57089V10.3371H90.7738C91.4353 9.18714 92.2883 8.35144 93.3479 7.83316C94.3985 7.31071 95.487 7.05261 96.5904 7.05261C97.9922 7.05261 99.1425 7.24411 100.031 7.63854C100.936 8.04026 101.64 8.58352 102.15 9.29017C102.672 9.9937 103.032 10.8523 103.241 11.8639C103.453 12.8734 103.557 13.987 103.557 15.215V27.4103H98.3045V16.2048C98.3045 14.5708 98.058 13.3428 97.5682 12.5393C97.0713 11.7348 96.2143 11.2186 94.9562 11.2186C93.5345 11.2186 92.4988 11.7775 91.8623 12.659C91.2218 13.5405 90.9045 14.9913 90.9045 17.0103V27.4103H85.7085V7.57089H90.6571Z" fill="#A7AAB4"/>
<path d="M115.185 11.1197C114.345 11.1197 113.651 11.3132 113.093 11.715C112.524 12.1156 112.059 12.6235 111.704 13.2532C111.347 13.8786 111.101 14.5707 110.948 15.3284C110.806 16.085 110.726 16.8343 110.726 17.5795C110.726 18.2996 110.806 19.0292 110.948 19.7743C111.101 20.5153 111.335 21.1845 111.667 21.7944C112.003 22.3918 112.45 22.883 113.015 23.2712C113.576 23.6573 114.26 23.8498 115.071 23.8498C116.329 23.8498 117.293 23.4835 117.968 22.7581C118.641 22.0286 119.057 21.0482 119.232 19.8201H124.279C123.932 22.4521 122.951 24.4628 121.335 25.8491C119.714 27.2259 117.638 27.9243 115.11 27.9243C113.681 27.9243 112.383 27.6703 111.186 27.1729C109.991 26.6681 108.976 25.9729 108.14 25.0758C107.304 24.1766 106.655 23.1078 106.18 21.8652C105.716 20.6205 105.483 19.254 105.483 17.7709C105.483 16.2348 105.699 14.8038 106.129 13.4811C106.557 12.1635 107.19 11.0218 108.033 10.0644C108.868 9.10066 109.89 8.35134 111.098 7.81224C112.301 7.27419 113.676 7.00464 115.22 7.00464C116.349 7.00464 117.433 7.16387 118.481 7.46152C119.521 7.76541 120.455 8.23478 121.276 8.86442C122.098 9.48989 122.771 10.2694 123.287 11.1988C123.797 12.1281 124.088 13.2417 124.169 14.5145H119.045C118.706 12.2499 117.418 11.1197 115.185 11.1197Z" fill="#A7AAB4"/>
<path d="M27.9017 1.84167H38.5522V4.54652H27.9017V1.84167Z" fill="#A7AAB4"/>
<path d="M138.205 12.2249C137.575 11.5079 136.515 11.1197 135.248 11.1197C134.414 11.1197 133.721 11.2664 133.158 11.5651C132.616 11.8596 132.122 12.227 131.789 12.6589C131.457 13.0981 131.219 13.5612 131.08 14.0566C130.956 14.5395 130.869 14.9776 130.846 15.3648H139.413C139.273 13.9744 138.828 12.9472 138.205 12.2249ZM132.136 22.6509C132.921 23.4481 134.106 23.8498 135.583 23.8498C136.634 23.8498 137.543 23.572 138.302 23.0172C139.062 22.4646 139.532 21.8724 139.7 21.2584H144.301C143.566 23.6469 142.437 25.3526 140.915 26.3788C139.397 27.4102 137.559 27.9243 135.401 27.9243C133.898 27.9243 132.545 27.6703 131.343 27.1729C130.135 26.6681 129.122 25.9604 128.275 25.0383C127.437 24.1121 126.795 23.0172 126.338 21.732C125.884 20.4529 125.658 19.0365 125.658 17.5014C125.658 16.0173 125.892 14.6311 126.357 13.3499C126.828 12.0646 127.497 10.9552 128.354 10.0248C129.223 9.08921 130.239 8.35134 131.429 7.81224C132.624 7.27419 133.951 7.00464 135.401 7.00464C137.008 7.00464 138.424 7.32726 139.62 7.98604C140.827 8.63442 141.819 9.51383 142.589 10.6149C143.365 11.715 143.922 12.9722 144.265 14.3813C144.602 15.7894 144.731 17.26 144.635 18.8002H130.846C130.846 20.3686 131.348 21.8537 132.136 22.6509Z" fill="#A7AAB4"/>
</svg>
