<svg width="32" height="33" viewBox="0 0 32 33" fill="none" xmlns="http://www.w3.org/2000/svg">
<path fill-rule="evenodd" clip-rule="evenodd" d="M21.9147 1.39966C26.7507 1.39966 30 4.79509 30 9.84824V21.6242C30 26.6774 26.7507 30.0728 21.9147 30.0728H9.41869C4.58269 30.0728 1.33336 26.6774 1.33336 21.6242V9.84824C1.33336 4.79509 4.58269 1.39966 9.41869 1.39966H21.9147ZM21.9147 3.40011H9.41869C5.72269 3.40011 3.33336 5.93002 3.33336 9.84824V21.6242C3.33336 25.5425 5.72269 28.0724 9.41869 28.0724H21.9147C25.612 28.0724 28 25.5425 28 21.6242V9.84824C28 5.93002 25.612 3.40011 21.9147 3.40011ZM9.49482 12.3388C10.0468 12.3388 10.4948 12.7869 10.4948 13.339V22.4878C10.4948 23.0399 10.0468 23.488 9.49482 23.488C8.94282 23.488 8.49482 23.0399 8.49482 22.4878V13.339C8.49482 12.7869 8.94282 12.3388 9.49482 12.3388ZM15.7175 7.95914C16.2695 7.95914 16.7175 8.40724 16.7175 8.95937V22.4864C16.7175 23.0386 16.2695 23.4867 15.7175 23.4867C15.1655 23.4867 14.7175 23.0386 14.7175 22.4864V8.95937C14.7175 8.40724 15.1655 7.95914 15.7175 7.95914ZM21.8379 17.1732C22.3899 17.1732 22.8379 17.6213 22.8379 18.1735V22.4864C22.8379 23.0386 22.3899 23.4867 21.8379 23.4867C21.2859 23.4867 20.8379 23.0386 20.8379 22.4864V18.1735C20.8379 17.6213 21.2859 17.1732 21.8379 17.1732Z" fill="#FE390C"/>
</svg>
