<svg width="32" height="33" viewBox="0 0 32 33" fill="none" xmlns="http://www.w3.org/2000/svg">
<path fill-rule="evenodd" clip-rule="evenodd" d="M19.8626 3.85609C20.4146 3.85609 20.8626 4.30419 20.8626 4.85631C20.8626 5.40844 20.4146 5.85654 19.8626 5.85654H10.1719C6.82788 5.85654 4.66655 8.15572 4.66655 11.7165V22.495C4.66655 26.1024 6.77588 28.343 10.1719 28.343H21.6439C24.9879 28.343 27.1492 26.0478 27.1492 22.495V13.1075C27.1492 12.5554 27.5972 12.1073 28.1492 12.1073C28.7012 12.1073 29.1492 12.5554 29.1492 13.1075V22.495C29.1492 27.1894 26.1332 30.3434 21.6439 30.3434H10.1719C5.68255 30.3434 2.66655 27.1894 2.66655 22.495V11.7165C2.66655 7.01547 5.68255 3.85609 10.1719 3.85609H19.8626ZM22.6831 12.9645C23.1204 13.3033 23.2004 13.9314 22.8618 14.3675L18.9551 19.4087C18.7924 19.6194 18.5524 19.7567 18.2884 19.7888C18.0218 19.8248 17.7578 19.7474 17.5471 19.5834L13.7898 16.6307L10.4151 21.017C10.2178 21.2731 9.92175 21.4078 9.62175 21.4078C9.40842 21.4078 9.19375 21.3398 9.01242 21.2011C8.57508 20.8637 8.49242 20.2355 8.82975 19.7981L12.8204 14.6102C12.9831 14.3982 13.2244 14.2608 13.4884 14.2275C13.7578 14.1928 14.0218 14.2675 14.2311 14.4342L17.9911 17.3882L21.2804 13.1433C21.6191 12.7045 22.2458 12.6231 22.6831 12.9645ZM26.6231 2.73303C28.5884 2.73303 30.1858 4.33073 30.1858 6.2965C30.1858 8.26228 28.5884 9.86131 26.6231 9.86131C24.6591 9.86131 23.0604 8.26228 23.0604 6.2965C23.0604 4.33073 24.6591 2.73303 26.6231 2.73303ZM26.6231 4.73348C25.7618 4.73348 25.0604 5.43364 25.0604 6.2965C25.0604 7.15803 25.7618 7.86086 26.6231 7.86086C27.4844 7.86086 28.1858 7.15803 28.1858 6.2965C28.1858 5.43364 27.4844 4.73348 26.6231 4.73348Z" fill="white"/>
</svg>
