<svg width="38" height="26" viewBox="0 0 38 26" fill="none" xmlns="http://www.w3.org/2000/svg">
<path d="M0.0664062 25V0.9375H9.69141V5.62695H4.90625V9.45508H9.44531V14.0898H4.90625V25H0.0664062Z" fill="white"/>
<path d="M17.4122 25.2188C15.489 25.2188 14.017 24.64 12.9962 23.4824C11.9845 22.3158 11.4786 20.6341 11.4786 18.4375V7.00781C11.4786 4.94792 11.9799 3.38477 12.9825 2.31836C13.9942 1.25195 15.4708 0.71875 17.4122 0.71875C19.3536 0.71875 20.8256 1.25195 21.8282 2.31836C22.8399 3.38477 23.3458 4.94792 23.3458 7.00781V18.4375C23.3458 20.6341 22.8354 22.3158 21.8145 23.4824C20.8028 24.64 19.3354 25.2188 17.4122 25.2188ZM17.4532 20.7891C18.1824 20.7891 18.547 20.0827 18.547 18.6699V6.92578C18.547 5.74089 18.1915 5.14844 17.4805 5.14844C16.6785 5.14844 16.2774 5.75456 16.2774 6.9668V18.6973C16.2774 19.4447 16.3686 19.9824 16.5509 20.3105C16.7332 20.6296 17.0339 20.7891 17.4532 20.7891Z" fill="white" fill-opacity="0.52"/>
<path d="M25.0099 25L27.5939 12.2441L25.5431 0.923828H30.2463L31.4904 9.19531L32.5978 0.923828H37.3146L35.2638 12.2441L37.8341 25H32.967L31.4494 15.5938L29.8908 25H25.0099Z" fill="url(#paint0_linear_0_632)"/>
<defs>
<linearGradient id="paint0_linear_0_632" x1="19" y1="-8" x2="19" y2="32" gradientUnits="userSpaceOnUse">
<stop stop-color="#FE390C"/>
<stop offset="1" stop-color="#521B0E"/>
</linearGradient>
</defs>
</svg>
