<svg width="105" height="28" viewBox="0 0 105 28" fill="none" xmlns="http://www.w3.org/2000/svg">
<path d="M20.0785 11.9478H11.3183C11.0924 11.9478 10.9089 12.1297 10.9089 12.3534V16.5944C10.9089 16.8181 11.0924 17.0002 11.3183 17.0002H14.7357V22.2692C14.7357 22.2692 13.9684 22.5282 11.8469 22.5282C9.34408 22.5282 5.8477 21.6227 5.8477 14.01C5.8477 6.39552 9.48843 5.39369 12.9064 5.39369C15.8651 5.39369 17.1398 5.90954 17.9508 6.15801C18.2056 6.23539 18.4413 5.98413 18.4413 5.76016L19.4186 1.66256C19.4186 1.55788 19.3828 1.43171 19.2621 1.34595C18.9328 1.11339 16.9234 0 11.8469 0C5.99878 0 0 2.46363 0 14.3068C0 26.1504 6.86816 27.9152 12.6557 27.9152C17.4478 27.9152 20.3548 25.8875 20.3548 25.8875C20.4747 25.8219 20.4877 25.6562 20.4877 25.5801V12.3534C20.4877 12.1297 20.3045 11.9478 20.0785 11.9478ZM65.2008 1.48244C65.2008 1.25675 65.0202 1.0747 64.7942 1.0747H59.8617C59.6364 1.0747 59.4532 1.25675 59.4532 1.48244C59.4532 1.48351 59.4545 10.9211 59.4545 10.9211H51.766V1.48244C51.766 1.25675 51.5845 1.0747 51.359 1.0747H46.4267C46.2022 1.0747 46.0192 1.25675 46.0192 1.48244V27.0394C46.0192 27.2648 46.2022 27.4484 46.4267 27.4484H51.359C51.5845 27.4484 51.766 27.2648 51.766 27.0394V16.1078H59.4545C59.4545 16.1078 59.441 27.0385 59.441 27.0394C59.441 27.2648 59.624 27.4484 59.8495 27.4484H64.7938C65.0198 27.4484 65.2004 27.2648 65.2008 27.0394V1.48244ZM29.3705 4.89933C29.3705 3.14069 27.9465 1.71951 26.1897 1.71951C24.4347 1.71951 23.0096 3.14069 23.0096 4.89933C23.0096 6.65603 24.4347 8.08107 26.1897 8.08107C27.9465 8.08107 29.3705 6.65603 29.3705 4.89933ZM28.9791 21.6616V9.86442C28.9791 9.64046 28.7965 9.45733 28.571 9.45733H23.6541C23.4286 9.45733 23.2267 9.68775 23.2267 9.91171V26.8135C23.2267 27.3102 23.5393 27.4579 23.9439 27.4579H28.3739C28.8599 27.4579 28.9791 27.2216 28.9791 26.8055V21.6616ZM84.0526 9.45733H79.1579C78.9334 9.45733 78.7507 9.64046 78.7507 9.86593V22.3973C78.7507 22.3973 77.5073 23.2981 75.7423 23.2981C73.9775 23.2981 73.509 22.5052 73.509 20.7941V9.86593C73.509 9.64046 73.3267 9.45733 73.102 9.45733H68.1343C67.9101 9.45733 67.7264 9.64046 67.7264 9.86593V21.6216C67.7264 26.7041 70.5872 27.9475 74.5227 27.9475C77.7513 27.9475 80.3544 26.1813 80.3544 26.1813C80.3544 26.1813 80.4783 27.112 80.5343 27.2225C80.5906 27.3325 80.7366 27.4437 80.8945 27.4437L84.0548 27.4299C84.279 27.4299 84.4627 27.2464 84.4627 27.022L84.4612 9.86593C84.4612 9.64046 84.2782 9.45733 84.0526 9.45733ZM95.3302 23.3078C93.6325 23.2566 92.4809 22.4938 92.4809 22.4938V14.4005C92.4809 14.4005 93.617 13.711 95.0109 13.5876C96.7735 13.4313 98.4718 13.9586 98.4718 18.122C98.4718 22.5123 97.7054 23.3787 95.3302 23.3078ZM97.2608 8.90837C94.4808 8.90837 92.5899 10.1365 92.5899 10.1365V1.48244C92.5899 1.25675 92.4077 1.0747 92.1828 1.0747H87.2364C87.0115 1.0747 86.8288 1.25675 86.8288 1.48244V27.0394C86.8288 27.2648 87.0115 27.4484 87.2371 27.4484H90.669C90.8235 27.4484 90.9405 27.3695 91.0269 27.2313C91.1122 27.094 91.2353 26.053 91.2353 26.053C91.2353 26.053 93.258 27.9509 97.0869 27.9509C101.582 27.9509 104.16 25.6932 104.16 17.8155C104.16 9.93772 100.043 8.90837 97.2608 8.90837ZM43.1754 9.41348H39.4754C39.4754 9.41348 39.4697 4.57455 39.4697 4.57348C39.4697 4.39035 39.3745 4.29879 39.1606 4.29879H34.1185C33.9225 4.29879 33.8172 4.38412 33.8172 4.57068V9.57232C33.8172 9.57232 31.2905 10.1763 31.1196 10.2251C30.9495 10.2739 30.8242 10.4293 30.8242 10.6146V13.7576C30.8242 13.9837 31.0066 14.166 31.2321 14.166H33.8172V21.7271C33.8172 27.3433 37.7957 27.895 40.4804 27.895C41.7071 27.895 43.1745 27.5049 43.4168 27.4164C43.5633 27.3631 43.6484 27.2128 43.6484 27.0499L43.6525 23.5924C43.6525 23.3669 43.4602 23.1844 43.2435 23.1844C43.028 23.1844 42.4764 23.2713 41.9086 23.2713C40.0912 23.2713 39.4754 22.4345 39.4754 21.3514C39.4754 20.2692 39.4752 14.166 39.4752 14.166H43.1754C43.4009 14.166 43.5835 13.9837 43.5835 13.7576V9.82079C43.5835 9.59532 43.4009 9.41348 43.1754 9.41348Z" fill="#A7AAB4"/>
</svg>
