<svg width="23" height="23" viewBox="0 0 23 23" fill="none" xmlns="http://www.w3.org/2000/svg">
<path d="M4.65081 6.71708C5.77865 6.71708 6.69294 5.80278 6.69294 4.67495C6.69294 3.54711 5.77865 2.63281 4.65081 2.63281C3.52297 2.63281 2.60867 3.54711 2.60867 4.67495C2.60867 5.80278 3.52297 6.71708 4.65081 6.71708Z" fill="white"/>
<path d="M8.62124 8.26462V19.5944H12.139V13.9916C12.139 12.5132 12.4171 11.0814 14.2502 11.0814C16.058 11.0814 16.0804 12.7717 16.0804 14.0849V19.5953H19.6V13.3821C19.6 10.3301 18.943 7.98462 15.3758 7.98462C13.6631 7.98462 12.5151 8.92449 12.0456 9.81395H11.998V8.26462H8.62124ZM2.8887 8.26462H6.41204V19.5944H2.8887V8.26462Z" fill="white"/>
</svg>
