<svg width="23" height="23" viewBox="0 0 23 23" fill="none" xmlns="http://www.w3.org/2000/svg">
<path d="M11.1991 6.88525C10.0545 6.88525 8.95674 7.33995 8.14738 8.1493C7.33802 8.95866 6.88333 10.0564 6.88333 11.201C6.88333 12.3456 7.33802 13.4433 8.14738 14.2527C8.95674 15.062 10.0545 15.5167 11.1991 15.5167C12.3437 15.5167 13.4414 15.062 14.2507 14.2527C15.0601 13.4433 15.5148 12.3456 15.5148 11.201C15.5148 10.0564 15.0601 8.95866 14.2507 8.1493C13.4414 7.33995 12.3437 6.88525 11.1991 6.88525ZM11.1991 14.0038C10.4555 14.0038 9.74233 13.7084 9.21653 13.1826C8.69072 12.6568 8.39533 11.9437 8.39533 11.2001C8.39533 10.4565 8.69072 9.74332 9.21653 9.21752C9.74233 8.69171 10.4555 8.39632 11.1991 8.39632C11.9427 8.39632 12.6558 8.69171 13.1816 9.21752C13.7074 9.74332 14.0028 10.4565 14.0028 11.2001C14.0028 11.9437 13.7074 12.6568 13.1816 13.1826C12.6558 13.7084 11.9427 14.0038 11.1991 14.0038Z" fill="white"/>
<path d="M15.6856 7.73272C16.2413 7.73272 16.6917 7.28226 16.6917 6.72659C16.6917 6.17092 16.2413 5.72046 15.6856 5.72046C15.1299 5.72046 14.6795 6.17092 14.6795 6.72659C14.6795 7.28226 15.1299 7.73272 15.6856 7.73272Z" fill="white"/>
<path d="M19.1641 5.70362C18.948 5.14566 18.6178 4.63895 18.1947 4.21594C17.7715 3.79293 17.2647 3.46294 16.7066 3.24709C16.0536 3.00195 15.3637 2.86941 14.6664 2.85509C13.7676 2.81589 13.4829 2.80469 11.2037 2.80469C8.92449 2.80469 8.63235 2.80469 7.74102 2.85509C7.04418 2.86867 6.35479 3.00125 5.70262 3.24709C5.14443 3.46269 4.63747 3.79259 4.21426 4.21563C3.79106 4.63867 3.46097 5.14551 3.24515 5.70362C2.99997 6.35659 2.86773 7.04654 2.85409 7.74389C2.81395 8.64175 2.80182 8.92642 2.80182 11.2066C2.80182 13.4858 2.80182 13.776 2.85409 14.6692C2.86809 15.3674 2.99969 16.0562 3.24515 16.7104C3.46157 17.2683 3.79199 17.775 4.21529 18.1979C4.6386 18.6209 5.14548 18.951 5.70355 19.167C6.35449 19.4219 7.04417 19.564 7.74289 19.587C8.64169 19.6262 8.92635 19.6383 11.2056 19.6383C13.4848 19.6383 13.7769 19.6383 14.6682 19.587C15.3655 19.5728 16.0554 19.4405 16.7085 19.1959C17.2664 18.9795 17.7731 18.6493 18.1962 18.2261C18.6193 17.803 18.9496 17.2963 19.166 16.7384C19.4114 16.0851 19.543 15.3963 19.557 14.6982C19.5972 13.8003 19.6093 13.5156 19.6093 11.2355C19.6093 8.95535 19.6093 8.66602 19.557 7.77282C19.5462 7.06561 19.4132 6.36559 19.1641 5.70362ZM18.0273 14.6002C18.0213 15.138 17.9231 15.6709 17.737 16.1756C17.5969 16.5386 17.3823 16.8682 17.1071 17.1432C16.8319 17.4182 16.5022 17.6326 16.1392 17.7726C15.64 17.9578 15.1128 18.056 14.5805 18.0628C13.6938 18.1039 13.4437 18.1142 11.1701 18.1142C8.89462 18.1142 8.66222 18.1142 7.75875 18.0628C7.22669 18.0563 6.69972 17.9581 6.20102 17.7726C5.83673 17.6335 5.50569 17.4195 5.22932 17.1444C4.95295 16.8693 4.7374 16.5393 4.59662 16.1756C4.41317 15.6763 4.31504 15.1497 4.30635 14.6179C4.26622 13.7312 4.25689 13.4811 4.25689 11.2075C4.25689 8.93295 4.25689 8.70055 4.30635 7.79615C4.31239 7.25857 4.41056 6.72601 4.59662 6.22162C4.88129 5.48522 5.46462 4.90562 6.20102 4.62375C6.69997 4.43908 7.22678 4.34092 7.75875 4.33349C8.64635 4.29335 8.89555 4.28215 11.1701 4.28215C13.4446 4.28215 13.678 4.28215 14.5805 4.33349C15.1129 4.33989 15.6402 4.43809 16.1392 4.62375C16.5022 4.76401 16.8318 4.97861 17.107 5.25378C17.3822 5.52896 17.5968 5.85862 17.737 6.22162C17.9205 6.72091 18.0186 7.2475 18.0273 7.77935C18.0674 8.66695 18.0777 8.91615 18.0777 11.1907C18.0777 13.4643 18.0777 13.7088 18.0376 14.6011H18.0273V14.6002Z" fill="white"/>
</svg>
