<svg width="24" height="25" viewBox="0 0 24 25" fill="none" xmlns="http://www.w3.org/2000/svg">
<path d="M12 1.71509C7.0374 1.71509 3 5.64173 3 10.4682C3 16.0299 6.7107 19.3854 9.17175 21.6061C9.95475 22.3461 10.9816 22.7151 12.0063 22.7151C13.0287 22.7151 14.0489 22.3475 14.8206 21.6135C17.2812 19.3929 21 16.0356 21 10.4682C21 5.64173 16.9626 1.71509 12 1.71509ZM12 13.9694C10.015 13.9694 8.4 12.3987 8.4 10.4682C8.4 8.53769 10.015 6.96695 12 6.96695C13.985 6.96695 15.6 8.53769 15.6 10.4682C15.6 12.3987 13.985 13.9694 12 13.9694Z" fill="#FE390C"/>
</svg>
