<svg width="32" height="33" viewBox="0 0 32 33" fill="none" xmlns="http://www.w3.org/2000/svg">
<path fill-rule="evenodd" clip-rule="evenodd" d="M8.33342 17.4029C13.7587 17.4029 14.0001 19.2433 14.0001 23.0708C14.0001 24.9886 14.0001 26.3529 13.1947 27.3518C12.2681 28.5027 10.5814 28.7388 8.33342 28.7388C6.08541 28.7388 4.39875 28.5027 3.47208 27.3518C2.66675 26.3529 2.66675 24.9899 2.66675 23.1042L3.66675 23.0708H2.66675C2.66675 19.2433 2.90808 17.4029 8.33342 17.4029ZM23.0001 17.4029C28.4254 17.4029 28.6667 19.2433 28.6667 23.0708C28.6667 24.9886 28.6667 26.3529 27.8614 27.3518C26.9347 28.5027 25.2481 28.7388 23.0001 28.7388C20.7521 28.7388 19.0654 28.5027 18.1387 27.3518C17.3334 26.3529 17.3334 24.9899 17.3334 23.1042L18.3334 23.0708H17.3334C17.3334 19.2433 17.5747 17.4029 23.0001 17.4029ZM8.6083 19.4039L8.33342 19.4033C4.85478 19.4033 4.67639 19.653 4.66724 22.5735L4.6678 23.7112C4.67412 24.8728 4.71837 25.7118 5.02808 26.0982C5.38141 26.5356 6.43075 26.7383 8.33342 26.7383C10.2361 26.7383 11.2854 26.5343 11.6387 26.0969C12.0001 25.6474 12.0001 24.5805 12.0001 23.1029C12.0001 19.7685 12.0001 19.4196 8.6083 19.4039ZM23.275 19.4039L23.0001 19.4033C19.5215 19.4033 19.3431 19.653 19.3339 22.5735L19.3345 23.7112C19.3408 24.8728 19.385 25.7118 19.6947 26.0982C20.0481 26.5356 21.0974 26.7383 23.0001 26.7383C24.9027 26.7383 25.9521 26.5343 26.3054 26.0969C26.6667 25.6474 26.6667 24.5805 26.6667 23.1029C26.6667 19.7685 26.6667 19.4196 23.275 19.4039ZM8.33342 2.73291C13.7587 2.73291 14.0001 4.57333 14.0001 8.40086C14.0001 10.3186 14.0001 11.6829 13.1947 12.6818C12.2681 13.8328 10.5814 14.0688 8.33342 14.0688C6.08541 14.0688 4.39875 13.8328 3.47208 12.6818C2.66675 11.6829 2.66675 10.32 2.66675 8.4342L3.66675 8.40086H2.66675C2.66675 4.57333 2.90808 2.73291 8.33342 2.73291ZM23.0001 2.73291C28.4254 2.73291 28.6667 4.57333 28.6667 8.40086C28.6667 10.3186 28.6667 11.6829 27.8614 12.6818C26.9347 13.8328 25.2481 14.0688 23.0001 14.0688C20.7521 14.0688 19.0654 13.8328 18.1387 12.6818C17.3334 11.6829 17.3334 10.32 17.3334 8.4342L18.3334 8.40086H17.3334C17.3334 4.57333 17.5747 2.73291 23.0001 2.73291ZM8.6083 4.73396L8.33342 4.73336C4.85478 4.73336 4.67639 4.98304 4.66724 7.90348L4.6678 9.04124C4.67412 10.2028 4.71837 11.0418 5.02808 11.4282C5.38141 11.8656 6.43075 12.0684 8.33342 12.0684C10.2361 12.0684 11.2854 11.8643 11.6387 11.4269C12.0001 10.9774 12.0001 9.91053 12.0001 8.43287C12.0001 5.09851 12.0001 4.74966 8.6083 4.73396ZM23.275 4.73396L23.0001 4.73336C19.5215 4.73336 19.3431 4.98304 19.3339 7.90348L19.3345 9.04124C19.3408 10.2028 19.385 11.0418 19.6947 11.4282C20.0481 11.8656 21.0974 12.0684 23.0001 12.0684C24.9027 12.0684 25.9521 11.8643 26.3054 11.4269C26.6667 10.9774 26.6667 9.91053 26.6667 8.43287C26.6667 5.09851 26.6667 4.74966 23.275 4.73396Z" fill="#FE390C"/>
</svg>
