<svg width="114" height="28" viewBox="0 0 114 28" fill="none" xmlns="http://www.w3.org/2000/svg">
<path d="M36.1749 21.9445L37.5873 18.7493C39.1135 19.8588 41.141 20.4357 43.1456 20.4357C44.6263 20.4357 45.5603 19.881 45.5603 19.0378C45.5375 16.6858 36.6988 18.5275 36.6305 12.6253C36.6077 9.62986 39.3413 7.32226 43.214 7.32226C45.5148 7.32226 47.8156 7.87697 49.4557 9.14172L48.1345 12.4034C46.631 11.4715 44.763 10.8059 42.9862 10.8059C41.7788 10.8059 40.9815 11.3606 40.9815 12.0706C41.0043 14.3782 49.9113 13.1135 50.0024 18.7493C50.0024 21.8114 47.3372 23.9636 43.5101 23.9636C40.7081 23.9636 38.134 23.3202 36.1749 21.9445ZM90.3689 17.5955L94.2643 19.7035C92.8064 22.2551 90.0272 23.9636 86.8152 23.9636C82.0997 23.9636 78.2726 20.236 78.2726 15.643C78.2726 11.0499 82.0997 7.32226 86.8152 7.32226C90.0044 7.32226 92.8064 9.05296 94.2643 11.5825L90.3689 13.6904C89.6627 12.4922 88.3415 11.6712 86.8152 11.6712C84.5599 11.6712 82.7375 13.4463 82.7375 15.643C82.7375 17.8396 84.5599 19.6147 86.8152 19.6147C88.3415 19.6147 89.6627 18.7937 90.3689 17.5955ZM51.9615 0.421631H56.8365V23.653H51.9615V0.421631ZM96.1778 0.421631H101.053V14.0676L106.566 7.65509H112.534L105.723 15.3767L113.081 23.653H106.839L101.053 16.6858V23.653H96.1778V0.421631ZM71.3247 17.6399V13.7126C70.6185 12.5588 69.1606 11.6712 67.5204 11.6712C65.2652 11.6712 63.4427 13.4463 63.4427 15.643C63.4427 17.8396 65.2652 19.6147 67.5204 19.6147C69.1606 19.6147 70.6185 18.7715 71.3247 17.6399ZM71.3247 7.65509H76.1996V23.6308H71.3247V21.7448C70.5274 23.0539 68.5455 23.9636 66.4725 23.9636C62.1898 23.9636 58.8184 20.236 58.8184 15.6208C58.8184 11.0056 62.1898 7.32226 66.4725 7.32226C68.5455 7.32226 70.5274 8.23199 71.3247 9.54111V7.65509Z" fill="#A7AAB4"/>
<path d="M6.03673 17.6177C6.03673 19.2375 4.6927 20.5466 3.02975 20.5466C1.3668 20.5466 0.0227661 19.2375 0.0227661 17.6177C0.0227661 15.998 1.3668 14.6888 3.02975 14.6888H6.03673V17.6177ZM7.54022 17.6177C7.54022 15.998 8.88425 14.6888 10.5472 14.6888C12.2101 14.6888 13.5542 15.998 13.5542 17.6177V24.9399C13.5542 26.5597 12.2101 27.8688 10.5472 27.8688C8.88425 27.8688 7.54022 26.5597 7.54022 24.9399V17.6177Z" fill="#A7AAB4"/>
<path d="M10.5472 5.85777C8.88426 5.85777 7.54023 4.54865 7.54023 2.92888C7.54023 1.30912 8.88426 0 10.5472 0C12.2102 0 13.5542 1.30912 13.5542 2.92888V5.85777H10.5472ZM10.5472 7.3444C12.2102 7.3444 13.5542 8.65352 13.5542 10.2733C13.5542 11.893 12.2102 13.2022 10.5472 13.2022H3.00698C1.34403 13.2022 0 11.893 0 10.2733C0 8.65352 1.34403 7.3444 3.00698 7.3444H10.5472Z" fill="#A7AAB4"/>
<path d="M22.5979 10.2733C22.5979 8.65352 23.942 7.3444 25.6049 7.3444C27.2679 7.3444 28.6119 8.65352 28.6119 10.2733C28.6119 11.893 27.2679 13.2022 25.6049 13.2022H22.5979V10.2733ZM21.0944 10.2733C21.0944 11.893 19.7504 13.2022 18.0875 13.2022C16.4245 13.2022 15.0805 11.893 15.0805 10.2733V2.92888C15.0805 1.30912 16.4245 0 18.0875 0C19.7504 0 21.0944 1.30912 21.0944 2.92888V10.2733Z" fill="#A7AAB4"/>
<path d="M18.0875 22.0111C19.7504 22.0111 21.0944 23.3202 21.0944 24.9399C21.0944 26.5597 19.7504 27.8688 18.0875 27.8688C16.4245 27.8688 15.0805 26.5597 15.0805 24.9399V22.0111H18.0875ZM18.0875 20.5466C16.4245 20.5466 15.0805 19.2375 15.0805 17.6177C15.0805 15.998 16.4245 14.6888 18.0875 14.6888H25.6277C27.2906 14.6888 28.6347 15.998 28.6347 17.6177C28.6347 19.2375 27.2906 20.5466 25.6277 20.5466H18.0875Z" fill="#A7AAB4"/>
</svg>
