<svg width="24" height="25" viewBox="0 0 24 25" fill="none" xmlns="http://www.w3.org/2000/svg">
<path d="M16.9394 3.71509C18.2804 3.71509 19.5704 4.24509 20.5194 5.19609C21.4694 6.14509 22.0004 7.42509 22.0004 8.76509V16.6651C22.0004 19.4551 19.7304 21.7151 16.9394 21.7151H7.06037C4.26937 21.7151 2.00037 19.4551 2.00037 16.6651V8.76509C2.00037 5.97509 4.25937 3.71509 7.06037 3.71509H16.9394ZM18.0704 8.91509C17.8604 8.90409 17.6604 8.97509 17.5094 9.11509L13.0004 12.7151C12.4204 13.1961 11.5894 13.1961 11.0004 12.7151L6.50037 9.11509C6.18937 8.88509 5.75937 8.91509 5.50037 9.18509C5.23037 9.45509 5.20037 9.88509 5.42937 10.1851L5.56037 10.3151L10.1104 13.8651C10.6704 14.3051 11.3494 14.5451 12.0604 14.5451C12.7694 14.5451 13.4604 14.3051 14.0194 13.8651L18.5304 10.2551L18.6104 10.1751C18.8494 9.88509 18.8494 9.46509 18.5994 9.17509C18.4604 9.02609 18.2694 8.93509 18.0704 8.91509Z" fill="#FE390C"/>
</svg>
