<svg width="93" height="28" viewBox="0 0 93 28" fill="none" xmlns="http://www.w3.org/2000/svg">
<path d="M13.9892 0C21.7112 0 27.9783 6.2328 27.9783 13.9125C27.9783 21.5922 21.7112 27.825 13.9892 27.825C6.26715 27.825 0 21.5922 0 13.9125C0 6.2328 6.26715 0 13.9892 0ZM13.9892 3.6729C8.28159 3.6729 3.69314 8.2362 3.69314 13.9125C3.69314 19.5888 8.28159 24.1521 13.9892 24.1521C19.6968 24.1521 24.2852 19.5888 24.2852 13.9125C24.2852 8.2362 19.6968 3.6729 13.9892 3.6729ZM85.8935 9.40485C90.0343 9.40485 93 12.41 93 15.9716V16.0272C93 19.5888 90.0343 22.6496 85.8376 22.6496C81.6968 22.6496 78.731 19.6445 78.731 16.0829V16.0272C78.731 12.4656 81.6968 9.40485 85.8935 9.40485ZM37.7148 5.50935C37.8827 5.4537 38.0505 5.62065 38.0505 5.73195V9.73875H45.4928C45.6607 9.73875 45.7726 9.85005 45.8285 9.96135L46.444 12.243L47.0036 14.5247L47.0596 14.636L47.1155 14.4134L48.5144 9.7944C48.5704 9.6831 48.7383 9.5718 48.8502 9.5718H52.5433C52.7112 9.5718 52.8231 9.6831 52.8791 9.7944L54.3339 14.7473L54.3899 14.5247L55.6209 9.9057C55.6769 9.7944 55.8448 9.6831 55.9567 9.6831H65.4693C65.5812 9.6831 65.6931 9.7944 65.6931 9.96135V22.0931C65.6931 22.2044 65.5812 22.3157 65.4693 22.3157H60.713C60.6011 22.3157 60.4892 22.2044 60.4892 22.0931V10.4066L56.9079 22.0931C56.852 22.2044 56.6841 22.3157 56.5722 22.3157H52.6552C52.4874 22.3157 52.3755 22.2044 52.3195 22.0931L51.5361 19.6445L50.6968 16.9733L49.0181 22.1487C48.9621 22.26 48.7942 22.3713 48.6823 22.3713H44.7653C44.5975 22.3713 44.4856 22.26 44.4296 22.1487L40.9043 10.5179V13.523C40.9043 13.6343 40.7924 13.7456 40.6805 13.7456H37.9946V16.9176C37.9946 17.8637 38.4422 18.1976 39.2816 18.1976C39.7292 18.1976 40.1209 18.1419 40.6245 17.9193C40.7365 17.9193 40.9043 17.975 40.9043 18.1419V21.8148C40.065 22.26 38.8339 22.5383 37.5469 22.5383C34.4693 22.5383 32.7906 21.0914 32.7906 18.0306V13.6899H31.5596C31.4477 13.6899 31.3357 13.5786 31.3357 13.4673V9.9057C31.3357 9.7944 31.4477 9.6831 31.5596 9.6831H32.7906V7.17885C32.7906 7.06755 32.8466 7.0119 33.0144 6.95625L37.7148 5.50935ZM71.7365 5.4537C71.8484 5.4537 71.9603 5.565 71.9603 5.6763V22.0931C71.9603 22.2044 71.8484 22.3157 71.7365 22.3157H66.9802C66.8682 22.3157 66.7563 22.2044 66.7563 22.0931V5.6763C66.7563 5.565 66.8682 5.4537 66.9802 5.4537H71.7365ZM78.0036 9.6831C78.1155 9.6831 78.2274 9.7944 78.2274 9.96135V22.0931C78.2274 22.2044 78.1155 22.3157 78.0036 22.3157H73.2473C73.1354 22.3157 73.0235 22.2044 73.0235 22.0931V9.9057C73.0235 9.7944 73.1354 9.6831 73.2473 9.6831H78.0036ZM17.4585 14.469C19.0655 14.469 20.3682 15.7646 20.3682 17.3628C20.3682 18.961 19.0655 20.2566 17.4585 20.2566C15.8515 20.2566 14.5487 18.961 14.5487 17.3628C14.5487 15.7646 15.8515 14.469 17.4585 14.469ZM10.5199 14.469C12.1269 14.469 13.4296 15.7646 13.4296 17.3628C13.4296 18.961 12.1269 20.2566 10.5199 20.2566C8.91285 20.2566 7.61011 18.961 7.61011 17.3628C7.61011 15.7646 8.91285 14.469 10.5199 14.469ZM85.8376 13.7456C84.6625 13.7456 83.8231 14.6916 83.8231 15.9159V15.9716C83.8231 17.1959 84.7184 18.1976 85.8935 18.1976C87.0686 18.1976 87.908 17.2515 87.908 16.0272C87.908 14.7473 87.0126 13.7456 85.8376 13.7456ZM17.4585 7.5684C19.0655 7.5684 20.3682 8.864 20.3682 10.4622C20.3682 12.0604 19.0655 13.356 17.4585 13.356C15.8515 13.356 14.5487 12.0604 14.5487 10.4622C14.5487 8.864 15.8515 7.5684 17.4585 7.5684ZM10.5199 7.5684C12.1269 7.5684 13.4296 8.864 13.4296 10.4622C13.4296 12.0604 12.1269 13.356 10.5199 13.356C8.91285 13.356 7.61011 12.0604 7.61011 10.4622C7.61011 8.864 8.91285 7.5684 10.5199 7.5684ZM65.5253 5.4537C65.6931 5.4537 65.8051 5.565 65.7491 5.6763V8.51445C65.7491 8.62575 65.6372 8.73705 65.5253 8.73705H60.6011C60.4892 8.73705 60.3773 8.62575 60.3773 8.51445V5.6763C60.3773 5.565 60.4892 5.4537 60.6011 5.4537H65.5253ZM78.0596 5.4537C78.2274 5.4537 78.3394 5.565 78.2834 5.6763V8.51445C78.2834 8.62575 78.1715 8.73705 78.0596 8.73705H73.1354C73.0235 8.73705 72.9116 8.62575 72.9116 8.51445V5.6763C72.9116 5.565 73.0235 5.4537 73.1354 5.4537H78.0596Z" fill="#A7AAB4"/>
</svg>
